{
	"asset":{
		"generator":"Khronos glTF Blender I/O v3.5.30",
		"version":"2.0"
	},
	"scene":0,
	"scenes":[
		{
			"name":"Scene",
			"nodes":[
				5
			]
		}
	],
	"nodes":[
		{
			"mesh":0,
			"name":"Circle",
			"rotation":[
				0.70710688829422,
				0,
				0,
				0.7071066498756409
			],
			"translation":[
				0,
				0.17770490050315857,
				0
			]
		},
		{
			"mesh":1,
			"name":"Cube.107"
		},
		{
			"mesh":2,
			"name":"Cube.108",
			"translation":[
				-0.11782431602478027,
				0.17116543650627136,
				0
			]
		},
		{
			"mesh":3,
			"name":"Cube.106",
			"rotation":[
				-0.70710688829422,
				0,
				0,
				0.7071066498756409
			],
			"scale":[
				0.06535206735134125,
				0.06535205990076065,
				0.0545811727643013
			],
			"translation":[
				0,
				0.0034951171837747097,
				0
			]
		},
		{
			"children":[
				3
			],
			"mesh":4,
			"name":"Cylinder.051",
			"rotation":[
				0.70710688829422,
				0,
				0,
				0.7071066498756409
			],
			"scale":[
				3.028789758682251,
				3.6264827251434326,
				3.0287892818450928
			],
			"translation":[
				0,
				0,
				0.09341873973608017
			]
		},
		{
			"children":[
				0,
				1,
				2,
				4
			],
			"mesh":5,
			"name":"Cube.105",
			"rotation":[
				-0.01137610338628292,
				-0.13002948462963104,
				-0.08641010522842407,
				0.9876721501350403
			],
			"scale":[
				6.668417453765869,
				6.668417453765869,
				6.668416976928711
			],
			"translation":[
				0.1727277636528015,
				0,
				0
			]
		}
	],
	"materials":[
		{
			"doubleSided":true,
			"name":"Black",
			"pbrMetallicRoughness":{
				"baseColorFactor":[
					0.03449475020170212,
					0.03449475020170212,
					0.03449475020170212,
					1
				],
				"metallicFactor":0,
				"roughnessFactor":0.5
			}
		},
		{
			"doubleSided":true,
			"name":"Grey",
			"pbrMetallicRoughness":{
				"baseColorFactor":[
					0.18017078936100006,
					0.18017078936100006,
					0.18017078936100006,
					1
				],
				"metallicFactor":0.5,
				"roughnessFactor":0.25
			}
		},
		{
			"doubleSided":true,
			"name":"White",
			"pbrMetallicRoughness":{
				"baseColorFactor":[
					0.800000011920929,
					0.800000011920929,
					0.800000011920929,
					1
				],
				"metallicFactor":0,
				"roughnessFactor":0.5
			}
		},
		{
			"doubleSided":true,
			"name":"Red",
			"pbrMetallicRoughness":{
				"baseColorFactor":[
					0.8000000715255737,
					0.025143520906567574,
					0.015555016696453094,
					1
				],
				"metallicFactor":0,
				"roughnessFactor":0.5
			}
		}
	],
	"meshes":[
		{
			"name":"Circle.002",
			"primitives":[
				{
					"attributes":{
						"POSITION":0,
						"NORMAL":1
					},
					"indices":2,
					"material":0
				}
			]
		},
		{
			"name":"Cube.097",
			"primitives":[
				{
					"attributes":{
						"POSITION":3,
						"TEXCOORD_0":4,
						"NORMAL":5
					},
					"indices":6,
					"material":1
				}
			]
		},
		{
			"name":"Cube.099",
			"primitives":[
				{
					"attributes":{
						"POSITION":7,
						"TEXCOORD_0":8,
						"NORMAL":9
					},
					"indices":10,
					"material":0
				}
			]
		},
		{
			"name":"Cube.098",
			"primitives":[
				{
					"attributes":{
						"POSITION":11,
						"TEXCOORD_0":12,
						"NORMAL":13
					},
					"indices":14,
					"material":2
				}
			]
		},
		{
			"name":"Cylinder.066",
			"primitives":[
				{
					"attributes":{
						"POSITION":15,
						"TEXCOORD_0":16,
						"NORMAL":17
					},
					"indices":18,
					"material":3
				}
			]
		},
		{
			"name":"Cube.079",
			"primitives":[
				{
					"attributes":{
						"POSITION":19,
						"TEXCOORD_0":20,
						"NORMAL":21
					},
					"indices":22,
					"material":2
				}
			]
		}
	],
	"accessors":[
		{
			"bufferView":0,
			"componentType":5126,
			"count":6250,
			"max":[
				0.07165055721998215,
				0.02164606563746929,
				0.014735275879502296
			],
			"min":[
				-0.07165055721998215,
				-0.02164606563746929,
				-0.07523518800735474
			],
			"type":"VEC3"
		},
		{
			"bufferView":1,
			"componentType":5126,
			"count":6250,
			"type":"VEC3"
		},
		{
			"bufferView":2,
			"componentType":5123,
			"count":37488,
			"type":"SCALAR"
		},
		{
			"bufferView":3,
			"componentType":5126,
			"count":2902,
			"max":[
				0.2529976963996887,
				0.19139963388442993,
				0.010381029918789864
			],
			"min":[
				-0.2529976963996887,
				-0.19139735400676727,
				-0.010381029918789864
			],
			"type":"VEC3"
		},
		{
			"bufferView":4,
			"componentType":5126,
			"count":2902,
			"type":"VEC2"
		},
		{
			"bufferView":5,
			"componentType":5126,
			"count":2902,
			"type":"VEC3"
		},
		{
			"bufferView":6,
			"componentType":5123,
			"count":15972,
			"type":"SCALAR"
		},
		{
			"bufferView":7,
			"componentType":5126,
			"count":1644,
			"max":[
				0.26653072237968445,
				0.030882084742188454,
				0.03088207170367241
			],
			"min":[
				-0.03088207170367241,
				-0.03088207170367241,
				-0.03088207170367241
			],
			"type":"VEC3"
		},
		{
			"bufferView":8,
			"componentType":5126,
			"count":1644,
			"type":"VEC2"
		},
		{
			"bufferView":9,
			"componentType":5126,
			"count":1644,
			"type":"VEC3"
		},
		{
			"bufferView":10,
			"componentType":5123,
			"count":8712,
			"type":"SCALAR"
		},
		{
			"bufferView":11,
			"componentType":5126,
			"count":2424,
			"max":[
				0.2500002980232239,
				0.25000008940696716,
				0.1173272579908371
			],
			"min":[
				-0.24999994039535522,
				-0.25000008940696716,
				0.05232725292444229
			],
			"type":"VEC3"
		},
		{
			"bufferView":12,
			"componentType":5126,
			"count":2424,
			"type":"VEC2"
		},
		{
			"bufferView":13,
			"componentType":5126,
			"count":2424,
			"type":"VEC3"
		},
		{
			"bufferView":14,
			"componentType":5123,
			"count":14532,
			"type":"SCALAR"
		},
		{
			"bufferView":15,
			"componentType":5126,
			"count":3870,
			"max":[
				0.033502109348773956,
				0.006520347204059362,
				0.03350210562348366
			],
			"min":[
				-0.033502109348773956,
				-0.006520342081785202,
				-0.033502109348773956
			],
			"type":"VEC3"
		},
		{
			"bufferView":16,
			"componentType":5126,
			"count":3870,
			"type":"VEC2"
		},
		{
			"bufferView":17,
			"componentType":5126,
			"count":3870,
			"type":"VEC3"
		},
		{
			"bufferView":18,
			"componentType":5123,
			"count":16512,
			"type":"SCALAR"
		},
		{
			"bufferView":19,
			"componentType":5126,
			"count":1603,
			"max":[
				0.25,
				0.18839967250823975,
				0.10000000149011612
			],
			"min":[
				-0.25,
				-0.18839967250823975,
				-0.10000000149011612
			],
			"type":"VEC3"
		},
		{
			"bufferView":20,
			"componentType":5126,
			"count":1603,
			"type":"VEC2"
		},
		{
			"bufferView":21,
			"componentType":5126,
			"count":1603,
			"type":"VEC3"
		},
		{
			"bufferView":22,
			"componentType":5123,
			"count":6324,
			"type":"SCALAR"
		}
	],
	"bufferViews":[
		{
			"buffer":0,
			"byteLength":75000,
			"byteOffset":0,
			"target":34962
		},
		{
			"buffer":0,
			"byteLength":75000,
			"byteOffset":75000,
			"target":34962
		},
		{
			"buffer":0,
			"byteLength":74976,
			"byteOffset":150000,
			"target":34963
		},
		{
			"buffer":0,
			"byteLength":34824,
			"byteOffset":224976,
			"target":34962
		},
		{
			"buffer":0,
			"byteLength":23216,
			"byteOffset":259800,
			"target":34962
		},
		{
			"buffer":0,
			"byteLength":34824,
			"byteOffset":283016,
			"target":34962
		},
		{
			"buffer":0,
			"byteLength":31944,
			"byteOffset":317840,
			"target":34963
		},
		{
			"buffer":0,
			"byteLength":19728,
			"byteOffset":349784,
			"target":34962
		},
		{
			"buffer":0,
			"byteLength":13152,
			"byteOffset":369512,
			"target":34962
		},
		{
			"buffer":0,
			"byteLength":19728,
			"byteOffset":382664,
			"target":34962
		},
		{
			"buffer":0,
			"byteLength":17424,
			"byteOffset":402392,
			"target":34963
		},
		{
			"buffer":0,
			"byteLength":29088,
			"byteOffset":419816,
			"target":34962
		},
		{
			"buffer":0,
			"byteLength":19392,
			"byteOffset":448904,
			"target":34962
		},
		{
			"buffer":0,
			"byteLength":29088,
			"byteOffset":468296,
			"target":34962
		},
		{
			"buffer":0,
			"byteLength":29064,
			"byteOffset":497384,
			"target":34963
		},
		{
			"buffer":0,
			"byteLength":46440,
			"byteOffset":526448,
			"target":34962
		},
		{
			"buffer":0,
			"byteLength":30960,
			"byteOffset":572888,
			"target":34962
		},
		{
			"buffer":0,
			"byteLength":46440,
			"byteOffset":603848,
			"target":34962
		},
		{
			"buffer":0,
			"byteLength":33024,
			"byteOffset":650288,
			"target":34963
		},
		{
			"buffer":0,
			"byteLength":19236,
			"byteOffset":683312,
			"target":34962
		},
		{
			"buffer":0,
			"byteLength":12824,
			"byteOffset":702548,
			"target":34962
		},
		{
			"buffer":0,
			"byteLength":19236,
			"byteOffset":715372,
			"target":34962
		},
		{
			"buffer":0,
			"byteLength":12648,
			"byteOffset":734608,
			"target":34963
		}
	],
	"buffers":[
		{
			"byteLength":747256,
			"uri":"data:application/octet-stream;base64,"
		}
	]
}
