{
  "accessors": [
    {
      "bufferView": 2,
      "componentType": 5126,
      "count": 44034,
      "max": [
        1.252986192703247,
        0.952326774597168,
        0.9469732046127319
      ],
      "min": [
        -1.2529860734939575,
        -0.952326774597168,
        -1.4854949712753296
      ],
      "type": "VEC3"
    },
    {
      "bufferView": 2,
      "byteOffset": 528408,
      "componentType": 5126,
      "count": 44034,
      "max": [
        0.9999990463256836,
        1.0,
        1.0
      ],
      "min": [
        -0.9999991059303284,
        -1.0,
        -1.0
      ],
      "type": "VEC3"
    },
    {
      "bufferView": 0,
      "componentType": 5125,
      "count": 264192,
      "type": "SCALAR"
    },
    {
      "bufferView": 2,
      "byteOffset": 1056816,
      "componentType": 5126,
      "count": 1118,
      "max": [
        0.5089395642280579,
        -0.7940347194671631,
        0.22246985137462616
      ],
      "min": [
        -0.5089395642280579,
        -0.9246542453765869,
        -0.22246979176998138
      ],
      "type": "VEC3"
    },
    {
      "bufferView": 2,
      "byteOffset": 1070232,
      "componentType": 5126,
      "count": 1118,
      "max": [
        0.9587683081626892,
        0.9996796250343323,
        0.9991373419761658
      ],
      "min": [
        -0.958768367767334,
        -0.9996796250343323,
        -0.9991374611854553
      ],
      "type": "VEC3"
    },
    {
      "bufferView": 1,
      "componentType": 5126,
      "count": 1118,
      "max": [
        1.0000001192092896,
        1.0
      ],
      "min": [
        0.0,
        0.0
      ],
      "type": "VEC2"
    },
    {
      "bufferView": 0,
      "byteOffset": 1056768,
      "componentType": 5125,
      "count": 5760,
      "type": "SCALAR"
    },
    {
      "bufferView": 2,
      "byteOffset": 1083648,
      "componentType": 5126,
      "count": 1118,
      "max": [
        0.45847687125205994,
        -0.843961238861084,
        0.13993333280086517
      ],
      "min": [
        -0.35172420740127563,
        -0.9254264235496521,
        0.031951453536748886
      ],
      "type": "VEC3"
    },
    {
      "bufferView": 2,
      "byteOffset": 1097064,
      "componentType": 5126,
      "count": 1118,
      "max": [
        0.9956885576248169,
        0.9981396794319153,
        0.9968775510787964
      ],
      "min": [
        -0.9956883788108826,
        -0.9981398582458496,
        -0.996877908706665
      ],
      "type": "VEC3"
    },
    {
      "bufferView": 1,
      "byteOffset": 8944,
      "componentType": 5126,
      "count": 1118,
      "max": [
        1.0000001192092896,
        1.0
      ],
      "min": [
        0.0,
        0.0
      ],
      "type": "VEC2"
    },
    {
      "bufferView": 0,
      "byteOffset": 1079808,
      "componentType": 5125,
      "count": 5760,
      "type": "SCALAR"
    },
    {
      "bufferView": 2,
      "byteOffset": 1110480,
      "componentType": 5126,
      "count": 13687,
      "max": [
        1.2055177688598633,
        1.2055177688598633,
        0.3157140016555786
      ],
      "min": [
        -1.2055177688598633,
        -1.2055177688598633,
        -1.000000238418579
      ],
      "type": "VEC3"
    },
    {
      "bufferView": 2,
      "byteOffset": 1274724,
      "componentType": 5126,
      "count": 13687,
      "max": [
        1.0,
        1.0,
        1.0
      ],
      "min": [
        -1.0,
        -1.0,
        -1.0
      ],
      "type": "VEC3"
    },
    {
      "bufferView": 1,
      "byteOffset": 17888,
      "componentType": 5126,
      "count": 13687,
      "max": [
        1.0000001192092896,
        1.000000238418579
      ],
      "min": [
        7.450579886381092e-08,
        0.010000006295740604
      ],
      "type": "VEC2"
    },
    {
      "bufferView": 0,
      "byteOffset": 1102848,
      "componentType": 5125,
      "count": 76032,
      "type": "SCALAR"
    },
    {
      "bufferView": 2,
      "byteOffset": 1438968,
      "componentType": 5126,
      "count": 1746,
      "max": [
        0.8370907306671143,
        0.837090790271759,
        0.04517277330160141
      ],
      "min": [
        -0.8370907306671143,
        -0.8370906710624695,
        -0.2891431152820587
      ],
      "type": "VEC3"
    },
    {
      "bufferView": 2,
      "byteOffset": 1459920,
      "componentType": 5126,
      "count": 1746,
      "max": [
        1.0,
        1.0,
        0.7146837711334229
      ],
      "min": [
        -1.0,
        -1.0,
        -0.7146831154823303
      ],
      "type": "VEC3"
    },
    {
      "bufferView": 1,
      "byteOffset": 127384,
      "componentType": 5126,
      "count": 1746,
      "max": [
        1.0000001192092896,
        1.0000001192092896
      ],
      "min": [
        7.450581307466564e-08,
        0.9999999403953552
      ],
      "type": "VEC2"
    },
    {
      "bufferView": 0,
      "byteOffset": 1406976,
      "componentType": 5125,
      "count": 10368,
      "type": "SCALAR"
    }
  ],
  "asset": {
    "extras": {
      "author": "Noby Grand (https://sketchfab.com/NobyGrand)",
      "license": "CC-BY-4.0 (http://creativecommons.org/licenses/by/4.0/)",
      "source": "https://sketchfab.com/3d-models/ghost-w-tophat-6b1217e3462440519a2d0e3e75bf16d3",
      "title": "Ghost w/ Tophat"
    },
    "generator": "Sketchfab-13.68.0",
    "version": "2.0"
  },
  "bufferViews": [
    {
      "buffer": 0,
      "byteLength": 1448448,
      "name": "floatBufferViews",
      "target": 34963
    },
    {
      "buffer": 0,
      "byteLength": 141352,
      "byteOffset": 1448448,
      "byteStride": 8,
      "name": "floatBufferViews",
      "target": 34962
    },
    {
      "buffer": 0,
      "byteLength": 1480872,
      "byteOffset": 1589800,
      "byteStride": 12,
      "name": "floatBufferViews",
      "target": 34962
    }
  ],
  "buffers": [
    {
      "byteLength": 3070672,
      "uri": "scene.bin"
    }
  ],
  "materials": [
    {
      "doubleSided": true,
      "name": "Ghost_White",
      "pbrMetallicRoughness": {
        "metallicFactor": 0.0,
        "roughnessFactor": 0.8125708573588034
      }
    },
    {
      "doubleSided": true,
      "name": "Eyes",
      "pbrMetallicRoughness": {
        "baseColorFactor": [
          0.0,
          0.0,
          0.0,
          1.0
        ],
        "metallicFactor": 0.0,
        "roughnessFactor": 0.27276273603881457
      }
    },
    {
      "doubleSided": true,
      "name": "Hat_Black",
      "pbrMetallicRoughness": {
        "baseColorFactor": [
          0.0,
          0.0,
          0.0,
          1.0
        ],
        "metallicFactor": 0.0,
        "roughnessFactor": 0.7542880130682302
      }
    },
    {
      "doubleSided": true,
      "name": "Rim_Red",
      "pbrMetallicRoughness": {
        "baseColorFactor": [
          0.41325840231132127,
          0.0,
          0.0009207965433799481,
          1.0
        ],
        "metallicFactor": 0.0
      }
    }
  ],
  "meshes": [
    {
      "name": "Body_Ghost White_0",
      "primitives": [
        {
          "attributes": {
            "NORMAL": 1,
            "POSITION": 0
          },
          "indices": 2,
          "material": 0,
          "mode": 4
        }
      ]
    },
    {
      "name": "Eyes_Eyes_0",
      "primitives": [
        {
          "attributes": {
            "NORMAL": 4,
            "POSITION": 3,
            "TEXCOORD_0": 5
          },
          "indices": 6,
          "material": 1,
          "mode": 4
        }
      ]
    },
    {
      "name": "Eyes_Ghost White_0",
      "primitives": [
        {
          "attributes": {
            "NORMAL": 8,
            "POSITION": 7,
            "TEXCOORD_0": 9
          },
          "indices": 10,
          "material": 0,
          "mode": 4
        }
      ]
    },
    {
      "name": "Hat_Hat Black_0",
      "primitives": [
        {
          "attributes": {
            "NORMAL": 12,
            "POSITION": 11,
            "TEXCOORD_0": 13
          },
          "indices": 14,
          "material": 2,
          "mode": 4
        }
      ]
    },
    {
      "name": "Rim_Rim Red_0",
      "primitives": [
        {
          "attributes": {
            "NORMAL": 16,
            "POSITION": 15,
            "TEXCOORD_0": 17
          },
          "indices": 18,
          "material": 3,
          "mode": 4
        }
      ]
    }
  ],
  "nodes": [
    {
      "children": [
        1
      ],
      "matrix": [
        1.0,
        0.0,
        0.0,
        0.0,
        0.0,
        2.220446049250313e-16,
        -1.0,
        0.0,
        0.0,
        1.0,
        2.220446049250313e-16,
        0.0,
        0.0,
        0.0,
        0.0,
        1.0
      ],
      "name": "Sketchfab_model"
    },
    {
      "children": [
        2
      ],
      "matrix": [
        0.009999999776482582,
        0.0,
        0.0,
        0.0,
        0.0,
        0.0,
        0.009999999776482582,
        0.0,
        0.0,
        -0.009999999776482582,
        0.0,
        0.0,
        0.0,
        0.0,
        0.0,
        1.0
      ],
      "name": "0034f16c047845e4be787af87b601fac.fbx"
    },
    {
      "children": [
        3,
        5,
        8,
        10
      ],
      "name": "RootNode"
    },
    {
      "children": [
        4
      ],
      "matrix": [
        100.0,
        0.0,
        0.0,
        0.0,
        0.0,
        -1.629206793918314e-05,
        -99.99999999999868,
        0.0,
        0.0,
        99.99999999999868,
        -1.629206793918314e-05,
        0.0,
        0.0,
        155.77691650390625,
        0.0,
        1.0
      ],
      "name": "Body"
    },
    {
      "mesh": 0,
      "name": "Body_Ghost White_0"
    },
    {
      "children": [
        6,
        7
      ],
      "matrix": [
        100.0,
        0.0,
        0.0,
        0.0,
        0.0,
        -1.629206793918314e-05,
        -99.99999999999868,
        0.0,
        0.0,
        99.99999999999868,
        -1.629206793918314e-05,
        0.0,
        0.0,
        155.77691650390625,
        0.0,
        1.0
      ],
      "name": "Eyes"
    },
    {
      "mesh": 1,
      "name": "Eyes_Eyes_0"
    },
    {
      "mesh": 2,
      "name": "Eyes_Ghost White_0"
    },
    {
      "children": [
        9
      ],
      "matrix": [
        100.0,
        0.0,
        0.0,
        0.0,
        0.0,
        -1.629206793918314e-05,
        -99.99999999999868,
        0.0,
        0.0,
        99.99999999999868,
        -1.629206793918314e-05,
        0.0,
        0.0,
        299.1296691894531,
        0.0,
        1.0
      ],
      "name": "Hat"
    },
    {
      "mesh": 3,
      "name": "Hat_Hat Black_0"
    },
    {
      "children": [
        11
      ],
      "matrix": [
        100.0,
        0.0,
        0.0,
        0.0,
        -0.0,
        -1.629206793918314e-05,
        -99.99999999999868,
        0.0,
        0.0,
        99.99999999999868,
        -1.629206793918314e-05,
        0.0,
        -2.483526941432501e-06,
        235.41090393066406,
        3.4769377634802368e-06,
        1.0
      ],
      "name": "Rim"
    },
    {
      "mesh": 4,
      "name": "Rim_Rim Red_0"
    }
  ],
  "scene": 0,
  "scenes": [
    {
      "name": "Sketchfab_Scene",
      "nodes": [
        0
      ]
    }
  ]
}
